<svg width="105" height="30" viewBox="0 0 105 30" fill="none" xmlns="http://www.w3.org/2000/svg">
<rect width="105" height="30" fill="#E5E5E5"/>
<path d="M49.6734 18.5469H42.5249L40.9195 23H38.5992L45.1148 5.9375H47.0835L53.6109 23H51.3023L49.6734 18.5469ZM43.2046 16.6953H49.0054L46.0992 8.71484L43.2046 16.6953ZM62.9507 19.6367C62.9507 19.0508 62.7281 18.5977 62.2827 18.2773C61.8452 17.9492 61.0757 17.668 59.9742 17.4336C58.8804 17.1992 58.0093 16.918 57.3609 16.5898C56.7202 16.2617 56.2437 15.8711 55.9312 15.418C55.6265 14.9648 55.4742 14.4258 55.4742 13.8008C55.4742 12.7617 55.9117 11.8828 56.7867 11.1641C57.6695 10.4453 58.7945 10.0859 60.1617 10.0859C61.5992 10.0859 62.7632 10.457 63.6538 11.1992C64.5523 11.9414 65.0015 12.8906 65.0015 14.0469H62.8218C62.8218 13.4531 62.5679 12.9414 62.0601 12.5117C61.5601 12.082 60.9273 11.8672 60.1617 11.8672C59.3726 11.8672 58.7554 12.0391 58.3101 12.3828C57.8648 12.7266 57.6421 13.1758 57.6421 13.7305C57.6421 14.2539 57.8492 14.6484 58.2632 14.9141C58.6773 15.1797 59.4234 15.4336 60.5015 15.6758C61.5874 15.918 62.4663 16.207 63.1382 16.543C63.8101 16.8789 64.3062 17.2852 64.6265 17.7617C64.9546 18.2305 65.1187 18.8047 65.1187 19.4844C65.1187 20.6172 64.6656 21.5273 63.7593 22.2148C62.8531 22.8945 61.6773 23.2344 60.232 23.2344C59.2163 23.2344 58.3179 23.0547 57.5367 22.6953C56.7554 22.3359 56.1421 21.8359 55.6968 21.1953C55.2593 20.5469 55.0406 19.8477 55.0406 19.0977H57.2085C57.2476 19.8242 57.5367 20.4023 58.0757 20.832C58.6226 21.2539 59.3413 21.4648 60.232 21.4648C61.0523 21.4648 61.7085 21.3008 62.2007 20.9727C62.7007 20.6367 62.9507 20.1914 62.9507 19.6367ZM70.8843 7.25V10.3203H73.2515V11.9961H70.8843V19.8594C70.8843 20.3672 70.9898 20.75 71.2007 21.0078C71.4117 21.2578 71.771 21.3828 72.2788 21.3828C72.5288 21.3828 72.8726 21.3359 73.3101 21.2422V23C72.7398 23.1562 72.1851 23.2344 71.646 23.2344C70.6773 23.2344 69.9468 22.9414 69.4546 22.3555C68.9624 21.7695 68.7163 20.9375 68.7163 19.8594V11.9961H66.4077V10.3203H68.7163V7.25H70.8843ZM81.9234 12.2656C81.5952 12.2109 81.2398 12.1836 80.857 12.1836C79.4351 12.1836 78.4702 12.7891 77.9624 14V23H75.7945V10.3203H77.9038L77.939 11.7852C78.6499 10.6523 79.6577 10.0859 80.9624 10.0859C81.3843 10.0859 81.7046 10.1406 81.9234 10.25V12.2656ZM91.2867 23C91.1617 22.75 91.0601 22.3047 90.982 21.6641C89.9742 22.7109 88.771 23.2344 87.3726 23.2344C86.1226 23.2344 85.0952 22.8828 84.2906 22.1797C83.4937 21.4688 83.0952 20.5703 83.0952 19.4844C83.0952 18.1641 83.5952 17.1406 84.5952 16.4141C85.6031 15.6797 87.0171 15.3125 88.8374 15.3125H90.9468V14.3164C90.9468 13.5586 90.7202 12.957 90.2671 12.5117C89.814 12.0586 89.146 11.832 88.2632 11.832C87.4898 11.832 86.8413 12.0273 86.3179 12.418C85.7945 12.8086 85.5327 13.2812 85.5327 13.8359H83.3531C83.3531 13.2031 83.5757 12.5938 84.021 12.0078C84.4742 11.4141 85.0835 10.9453 85.8492 10.6016C86.6226 10.2578 87.4702 10.0859 88.3921 10.0859C89.8531 10.0859 90.9976 10.4531 91.8257 11.1875C92.6538 11.9141 93.0835 12.918 93.1148 14.1992V20.0352C93.1148 21.1992 93.2632 22.125 93.5601 22.8125V23H91.2867ZM87.689 21.3477C88.3687 21.3477 89.0132 21.1719 89.6226 20.8203C90.232 20.4688 90.6734 20.0117 90.9468 19.4492V16.8477H89.2476C86.5913 16.8477 85.2632 17.625 85.2632 19.1797C85.2632 19.8594 85.4898 20.3906 85.9429 20.7734C86.396 21.1562 86.9781 21.3477 87.689 21.3477ZM98.8687 23H96.7007V5H98.8687V23Z" fill="white"/>
<rect width="32.3832" height="30" rx="5" fill="#162044"/>
<rect x="11.7757" y="10" width="9.81308" height="10" fill="#0059F7"/>
</svg>
